<?xml version="1.0" encoding="iso-8859-1"?>
<!-- Generator: Adobe Illustrator 19.0.0, SVG Export Plug-In . SVG Version: 6.00 Build 0)  -->
<svg version="1.1" id="Layer_1" xmlns="http://www.w3.org/2000/svg" xmlns:xlink="http://www.w3.org/1999/xlink" x="0px" y="0px"
	 viewBox="0 0 512 512" style="enable-background:new 0 0 512 512;" xml:space="preserve">
<g>
	<g>
		<path d="M424.111,151.058h-1.31V29.068C422.802,13.04,409.763,0,393.735,0H75.929c-4.827,0-8.738,3.912-8.738,8.738v434.165
			c0,4.826,3.911,8.738,8.738,8.738h43.307v51.622c0,3.222,1.773,6.184,4.615,7.704c2.84,1.519,6.288,1.355,8.969-0.435
			l21.364-14.244l21.365,14.244c1.462,0.975,3.151,1.468,4.846,1.468c1.414,0,2.832-0.342,4.123-1.034
			c2.84-1.52,4.615-4.481,4.615-7.703v-51.622h204.601c16.028,0,29.067-13.04,29.067-29.068V300.585h1.309
			c11.413,0,20.698-9.284,20.698-20.697V171.755C444.809,160.342,435.524,151.058,424.111,151.058z M393.733,17.475
			c6.392,0,11.593,5.201,11.593,11.593v30.66c-21.547-3.68-38.583-20.712-42.266-42.253H393.733z M101.205,434.165H84.666V17.475
			h16.539V434.165z M171.658,486.936l-12.628-8.418c-1.468-0.979-3.157-1.468-4.846-1.468s-3.379,0.489-4.846,1.468l-12.626,8.417
			v-35.294h34.947V486.936z M118.68,434.165V17.475h226.724c3.949,31.19,28.726,55.96,59.923,59.909v73.673h-9.059
			c-16.098,0-29.195,13.097-29.195,29.195v91.138c0,16.098,13.096,29.195,29.195,29.195h9.059v73.67
			c-31.196,3.948-55.972,28.719-59.923,59.91H118.68z M405.328,422.572c-0.001,6.392-5.202,11.593-11.593,11.593h-30.673
			c3.681-21.541,20.719-38.573,42.266-42.253V422.572z M427.334,279.888c0,1.777-1.445,3.221-3.222,3.221h-27.844
			c-6.462,0-11.72-5.258-11.72-11.72v-91.138c0-6.462,5.258-11.72,11.72-11.72h27.844c1.777,0,3.222,1.446,3.222,3.222V279.888z"/>
	</g>
</g>
<g>
	<g>
		<path d="M327.205,156.924h-49.101v-51.677c0-4.825-3.911-8.738-8.738-8.738h-33.671c-4.827,0-8.738,3.912-8.738,8.738v51.677
			h-49.101c-4.827,0-8.738,3.912-8.738,8.738v33.671c0,4.825,3.911,8.738,8.738,8.738h49.101v138.322
			c0,4.826,3.911,8.738,8.738,8.738h33.671c4.827,0,8.738-3.912,8.738-8.738V208.071h49.101c4.827,0,8.738-3.912,8.738-8.738
			v-33.671C335.943,160.836,332.032,156.924,327.205,156.924z M318.468,190.595h-49.101c-4.827,0-8.738,3.912-8.738,8.738v138.322
			h-16.196V199.333c0-4.826-3.911-8.738-8.738-8.738h-49.101v-16.196h49.101c4.827,0,8.738-3.912,8.738-8.738v-51.677h16.196v51.677
			c0,4.826,3.911,8.738,8.738,8.738h49.101V190.595z"/>
	</g>
</g>
<g>
	<g>
		<circle cx="405.938" cy="252.913" r="8.738"/>
	</g>
</g>
<g>
	<g>
		<circle cx="405.938" cy="198.74" r="8.738"/>
	</g>
</g>
<g>
</g>
<g>
</g>
<g>
</g>
<g>
</g>
<g>
</g>
<g>
</g>
<g>
</g>
<g>
</g>
<g>
</g>
<g>
</g>
<g>
</g>
<g>
</g>
<g>
</g>
<g>
</g>
<g>
</g>
</svg>
