<?xml version="1.0" encoding="iso-8859-1"?>
<!-- Generator: Adobe Illustrator 19.0.0, SVG Export Plug-In . SVG Version: 6.00 Build 0)  -->
<svg version="1.1" id="Layer_1" xmlns="http://www.w3.org/2000/svg" xmlns:xlink="http://www.w3.org/1999/xlink" x="0px" y="0px"
	 viewBox="0 0 512 512" style="enable-background:new 0 0 512 512;" xml:space="preserve">
<g>
	<g>
		<path style="fill:#6C686F;" d="M360.672,187.874c7.46-69.886-46.959-64.569-91.055-28.884
			c-53.581,43.364-33.669,63.168-51.925,104.695l53.835,53.838C310.929,297.465,355.508,236.242,360.672,187.874z"/>
		<path style="fill:#6C686F;" d="M240.811,347.144l-53.588-53.585l-25.618,25.618c-14.09,14.088-14.09,37.142,0,51.234l2.352,2.352
			c14.09,14.088,37.144,14.088,51.235,0L240.811,347.144z"/>
	</g>
	<path style="fill:#A9C4DA;" d="M187.223,293.558l53.588,53.585l-25.617,25.62c-14.091,14.088-37.145,14.088-51.235,0l-2.352-2.352
		c-14.09-14.092-14.09-37.146,0-51.234L187.223,293.558L187.223,293.558z M501.329,256.003
		c0-135.495-109.839-245.332-245.33-245.332c-135.493,0-245.332,109.838-245.332,245.332c0,135.488,109.84,245.326,245.332,245.326
		C391.491,501.329,501.329,391.492,501.329,256.003L501.329,256.003z M360.672,187.874c7.46-69.886-46.959-64.569-91.055-28.884
		c-53.581,43.364-33.669,63.168-51.925,104.695l53.835,53.838C310.929,297.465,355.508,236.242,360.672,187.874z"/>
</g>
<g>
	<path style="fill:#000003;" d="M255.999,0.002C114.841,0.002,0,114.841,0,255.999s114.841,255.999,255.999,255.999
		C397.159,511.998,512,397.157,512,255.999S397.159,0.002,255.999,0.002z M255.999,490.66
		c-129.392,0-234.662-105.268-234.662-234.662c0-129.391,105.269-234.659,234.662-234.659
		c129.393,0,234.664,105.268,234.664,234.659C490.663,385.392,385.392,490.66,255.999,490.66z"/>
	<path style="fill:#000003;" d="M266.668,53.335c0-5.89-4.776-10.669-10.669-10.669c-117.634,0-213.337,95.702-213.337,213.337
		c0,8.081,0.468,16.251,1.39,24.284c0.625,5.441,5.238,9.454,10.587,9.454c0.405,0,0.817-0.022,1.23-0.07
		c5.853-0.673,10.054-5.962,9.381-11.817c-0.829-7.227-1.25-14.578-1.25-21.851c0-105.868,86.131-191.999,191.999-191.999
		C261.892,64.004,266.668,59.228,266.668,53.335z"/>
	<path style="fill:#000003;" d="M467.944,231.713c-0.672-5.853-5.957-10.061-11.815-9.383c-5.853,0.671-10.055,5.962-9.383,11.815
		c0.827,7.218,1.248,14.573,1.248,21.858c0,105.867-86.129,191.993-191.995,191.993c-5.892,0-10.669,4.779-10.669,10.669
		c0,5.892,4.776,10.669,10.669,10.669c117.632,0,213.333-95.699,213.333-213.33C469.332,247.908,468.865,239.736,467.944,231.713z"
		/>
	<path style="fill:#000003;" d="M70.482,305.459c-1.506-5.697-7.346-9.097-13.044-7.595c-5.696,1.506-9.095,7.339-7.59,13.034
		l0.107,0.406c1.31,4.726,5.6,7.822,10.276,7.822c0.943,0,1.901-0.125,2.855-0.389c5.648-1.565,8.97-7.391,7.456-13.043
		L70.482,305.459z"/>
	<path style="fill:#000003;" d="M441.514,206.542c1.264,4.779,5.568,7.914,10.284,7.914c0.908,0,1.831-0.116,2.75-0.358
		c5.696-1.506,9.085-7.378,7.578-13.076l-0.052-0.202c-1.508-5.695-7.337-9.058-13.034-7.553c-5.696,1.504-9.085,7.376-7.579,13.073
		L441.514,206.542z"/>
	<path style="fill:#000003;" d="M248.354,339.599l-53.586-53.584c-4.164-4.165-10.919-4.165-15.088,0l-25.618,25.616
		c-8.831,8.828-13.694,20.606-13.694,33.16c0,12.554,4.864,24.332,13.692,33.165l2.355,2.352c8.828,8.828,20.606,13.69,33.16,13.69
		s24.332-4.862,33.163-13.692l25.618-25.62C252.521,350.519,252.521,343.766,248.354,339.599z M207.652,365.22
		c-4.8,4.799-11.22,7.441-18.075,7.441c-6.856,0-13.275-2.643-18.074-7.441l-2.351-2.352c-4.8-4.801-7.445-11.221-7.445-18.076
		c0-6.856,2.645-13.273,7.444-18.072l18.074-18.072l38.5,38.497L207.652,365.22z"/>
	<path style="fill:#000003;" d="M216.811,226.129c-1.657,10.183-3.368,20.714-8.885,33.263c-1.769,4.025-0.888,8.727,2.223,11.838
		l53.833,53.835c2.051,2.051,4.78,3.126,7.547,3.126c1.644,0,3.303-0.379,4.836-1.161c20.704-10.54,43.053-31.531,61.312-57.594
		c19.032-27.166,30.966-55.729,33.602-80.428c2.547-23.85-1.404-41.77-11.739-53.269c-7.684-8.548-18.592-13.067-31.544-13.067
		c-19.361,0-43.085,10.214-65.092,28.025C223.951,182.221,220.483,203.549,216.811,226.129z M327.997,144.008
		c6.923,0,12.05,1.961,15.676,5.995c6.03,6.707,8.239,19.412,6.391,36.739c-4.309,40.373-40.527,95.024-76.721,117.506
		l-43.111-43.112c2.934-7.91,4.659-15.07,5.928-21.677l10.658,10.658c2.084,2.084,4.814,3.126,7.545,3.126
		c2.73,0,5.459-1.042,7.543-3.124c4.166-4.167,4.167-10.92,0-15.089l-20.992-20.994c3.715-13.99,11.358-27.284,35.415-46.755
		C294.336,152.711,313.651,144.008,327.997,144.008z"/>
	<path style="fill:#000003;" d="M267.909,271.213l0.288,0.286c2.083,2.084,4.814,3.126,7.543,3.126c2.731,0,5.461-1.042,7.545-3.126
		c4.165-4.165,4.165-10.921,0-15.089l-0.288-0.286c-4.165-4.165-10.921-4.165-15.089,0
		C263.744,260.29,263.744,267.045,267.909,271.213z"/>
</g>
<g>
</g>
<g>
</g>
<g>
</g>
<g>
</g>
<g>
</g>
<g>
</g>
<g>
</g>
<g>
</g>
<g>
</g>
<g>
</g>
<g>
</g>
<g>
</g>
<g>
</g>
<g>
</g>
<g>
</g>
</svg>
